<svg width="48" height="48" viewBox="0 0 48 48" fill="none" xmlns="http://www.w3.org/2000/svg">
<path d="M29.6398 8.51953C29.2426 9.23091 28.8887 9.96557 28.5798 10.7195C25.5454 10.2396 22.4543 10.2396 19.4198 10.7195C19.111 9.96557 18.757 9.23091 18.3598 8.51953C15.5014 9.00793 12.7226 9.88261 10.0998 11.1195C5.40972 17.8881 3.28271 26.1054 4.09983 34.2995C7.15631 36.5972 10.5868 38.3497 14.2398 39.4795C15.0717 38.3807 15.814 37.217 16.4598 35.9995C15.268 35.5601 14.1224 35.0041 13.0398 34.3395C13.3368 34.142 13.6176 33.9213 13.8798 33.6795C17.0368 35.2002 20.4958 35.9898 23.9998 35.9898C27.5039 35.9898 30.9629 35.2002 34.1198 33.6795C34.3998 33.9195 34.6798 34.1395 34.9598 34.3395C33.8713 34.9988 32.7269 35.561 31.5398 36.0195C32.1588 37.2646 32.8814 38.4555 33.6998 39.5795C37.3484 38.4536 40.7729 36.7007 43.8198 34.3995C44.6566 26.2039 42.5278 17.9799 37.8198 11.2195C35.2265 9.95701 32.4752 9.04887 29.6398 8.51953ZM17.3598 29.6195C16.359 29.5477 15.4249 29.0909 14.7537 28.3451C14.0824 27.5992 13.7262 26.6224 13.7598 25.6195C13.7212 24.6154 14.0756 23.6357 14.7479 22.8888C15.4201 22.1418 16.3572 21.6865 17.3598 21.6195C18.3625 21.6865 19.2996 22.1418 19.9718 22.8888C20.6441 23.6357 20.9985 24.6154 20.9598 25.6195C20.9985 26.6237 20.6441 27.6034 19.9718 28.3503C19.2996 29.0973 18.3625 29.5526 17.3598 29.6195ZM30.6398 29.6195C29.639 29.5477 28.7049 29.0909 28.0337 28.3451C27.3624 27.5992 27.0062 26.6224 27.0398 25.6195C27.0012 24.6154 27.3556 23.6357 28.0279 22.8888C28.7001 22.1418 29.6372 21.6865 30.6398 21.6195C31.6444 21.6815 32.5844 22.1353 33.2577 22.8834C33.931 23.6315 34.2837 24.614 34.2398 25.6195C34.2837 26.625 33.931 27.6075 33.2577 28.3556C32.5844 29.1037 31.6444 29.5576 30.6398 29.6195Z" fill="#EAC48B"/>
</svg>
