<svg width="637" height="490" viewBox="0 0 637 490" fill="none" xmlns="http://www.w3.org/2000/svg">
<g filter="url(#filter0_f)">
<path d="M469.031 209.002L374.664 270.456L411.123 326.873L478.06 321.253L469.031 209.002ZM369.584 280.796L385.725 378.571L472.98 331.592L406.043 337.213L369.584 280.796Z" fill="#0F1118"/>
<path d="M402.43 339.548L403.831 341.716L406.403 341.5L452.727 337.61L388.989 371.928L377.198 300.505L402.43 339.548ZM380.605 271.722L465.322 216.552L473.428 317.324L413.335 322.37L380.605 271.722Z" stroke="url(#paint0_linear)" stroke-opacity="0.5" stroke-width="8.60467"/>
</g>
<g filter="url(#filter1_f)">
<path d="M147.719 203.564L118.589 283.42L166.161 300.963L204.027 267.243L147.719 203.564ZM120.207 291.964L174.25 343.682L205.645 275.786L167.779 309.507L120.207 291.964Z" fill="#0F1118"/>
<path d="M166.656 312.553L168.484 313.228L169.939 311.932L196.144 288.596L173.211 338.192L133.733 300.413L166.656 312.553ZM122.749 281.493L148.9 209.802L199.45 266.97L165.457 297.242L122.749 281.493Z" stroke="url(#paint1_linear)" stroke-opacity="0.5" stroke-width="6.49504"/>
</g>
<path d="M297.109 120.126L186.201 267.746L274.022 334.21L373.994 287.998L297.109 120.126ZM184.176 286.525L263.896 428.106L371.969 306.777L271.997 352.989L184.176 286.525Z" fill="#0F1118"/>
<path d="M268.98 356.976L271.372 358.786L274.095 357.527L352.246 321.402L264.819 419.553L200.328 305.019L268.98 356.976ZM193.192 266.766L296.061 129.845L367.374 285.55L274.648 328.412L193.192 266.766Z" stroke="url(#paint2_linear)" stroke-opacity="0.8" stroke-width="10"/>
<defs>
<filter id="filter0_f" x="365.584" y="205.002" width="116.475" height="177.569" filterUnits="userSpaceOnUse" color-interpolation-filters="sRGB">
<feFlood flood-opacity="0" result="BackgroundImageFix"/>
<feBlend mode="normal" in="SourceGraphic" in2="BackgroundImageFix" result="shape"/>
<feGaussianBlur stdDeviation="2" result="effect1_foregroundBlur"/>
</filter>
<filter id="filter1_f" x="114.589" y="199.564" width="95.0553" height="148.118" filterUnits="userSpaceOnUse" color-interpolation-filters="sRGB">
<feFlood flood-opacity="0" result="BackgroundImageFix"/>
<feBlend mode="normal" in="SourceGraphic" in2="BackgroundImageFix" result="shape"/>
<feGaussianBlur stdDeviation="2" result="effect1_foregroundBlur"/>
</filter>
<linearGradient id="paint0_linear" x1="381.274" y1="376.642" x2="484.656" y2="386.751" gradientUnits="userSpaceOnUse">
<stop stop-color="#EAC48B"/>
<stop offset="0.435582" stop-color="#F8E3C6"/>
<stop offset="0.921461" stop-color="#EAC48B"/>
</linearGradient>
<linearGradient id="paint1_linear" x1="170.689" y1="344.533" x2="237.685" y2="303.798" gradientUnits="userSpaceOnUse">
<stop stop-color="#EAC48B"/>
<stop offset="0.435582" stop-color="#F8E3C6"/>
<stop offset="0.921461" stop-color="#EAC48B"/>
</linearGradient>
<linearGradient id="paint2_linear" x1="255.957" y1="427.63" x2="420.903" y2="385.206" gradientUnits="userSpaceOnUse">
<stop stop-color="#EAC48B"/>
<stop offset="0.435582" stop-color="#F8E3C6"/>
<stop offset="0.921461" stop-color="#EAC48B"/>
</linearGradient>
</defs>
</svg>
