<svg width="620" height="490" viewBox="0 0 620 490" fill="none" xmlns="http://www.w3.org/2000/svg">
<g clip-path="url(#clip0)">
<g filter="url(#filter0_f)">
<path d="M427.442 177.173L425.091 174.495L423.912 175.53L423.879 177.099L427.442 177.173ZM454.732 165.912L455.156 169.45L455.184 169.447L455.213 169.443L454.732 165.912ZM530.377 257.872L527.672 255.552L527.647 255.581L527.622 255.611L530.377 257.872ZM518.381 268.562L516.415 265.59L516.404 265.597L516.394 265.603L518.381 268.562ZM503.709 276.734L502.215 273.499L502.176 273.517L502.137 273.536L503.709 276.734ZM487.31 284.318L485.885 281.052L485.848 281.067L485.813 281.084L487.31 284.318ZM470.421 293.341L472.102 296.483L472.185 296.439L472.264 296.39L470.421 293.341ZM459.896 299.713L457.887 296.77L457.871 296.78L457.856 296.791L459.896 299.713ZM452.917 307.937L456.143 309.452L452.917 307.937ZM452.251 321.203L453.356 324.592L456.374 323.608L455.744 320.497L452.251 321.203ZM449.36 322.146L446.94 324.761L448.475 326.182L450.464 325.534L449.36 322.146ZM436.792 303.405L433.409 304.528L433.421 304.565L433.434 304.601L436.792 303.405ZM437.993 281.968L441.268 283.373L437.993 281.968ZM446.247 270.003L443.946 267.282L443.895 267.325L443.845 267.37L446.247 270.003ZM458.034 261.811L456.286 258.705L456.276 258.711L458.034 261.811ZM471.358 253.823L469.532 250.762L469.487 250.789L469.442 250.818L471.358 253.823ZM483.74 242.942L481.021 240.639L480.998 240.666L480.976 240.693L483.74 242.942ZM493.282 225.312L496.656 226.461L496.665 226.434L496.674 226.406L493.282 225.312ZM494.443 195.508L491.082 196.693L491.093 196.724L491.105 196.754L494.443 195.508ZM449.239 182.031L451.224 184.991L451.242 184.979L451.26 184.966L449.239 182.031ZM429.611 212.288L428.462 215.661L431.835 216.811L432.985 213.438L429.611 212.288ZM426.733 211.307L423.17 211.233L423.116 213.84L425.584 214.681L426.733 211.307ZM409.815 368.425L406.617 369.998L406.635 370.035L406.654 370.072L409.815 368.425ZM419.918 338.778L418.421 335.544L418.383 335.561L418.346 335.58L419.918 338.778ZM449.566 348.881L452.764 347.309L449.566 348.881ZM439.463 378.529L437.89 375.331L439.463 378.529ZM429.793 179.851C436.18 174.243 444.56 170.718 455.156 169.45L454.309 162.373C442.577 163.777 432.763 167.759 425.091 174.495L429.793 179.851ZM455.213 169.443C465.781 168.005 477.451 169.387 490.288 173.762L492.587 167.015C478.943 162.366 466.143 160.763 454.252 162.381L455.213 169.443ZM490.288 173.762C510.59 180.68 524.184 190.146 531.711 201.841L537.704 197.984C528.987 184.439 513.735 174.222 492.587 167.015L490.288 173.762ZM531.711 201.841C539.175 213.44 540.528 226.464 535.473 241.296L542.22 243.595C547.89 226.956 546.483 211.625 537.704 197.984L531.711 201.841ZM535.473 241.296C533.5 247.087 530.881 251.811 527.672 255.552L533.082 260.192C536.981 255.646 540.008 250.086 542.22 243.595L535.473 241.296ZM527.622 255.611C524.57 259.33 520.844 262.66 516.415 265.59L520.347 271.534C525.32 268.244 529.591 264.447 533.132 260.132L527.622 255.611ZM516.394 265.603C512.122 268.472 507.398 271.105 502.215 273.499L505.203 279.97C510.695 277.434 515.753 274.619 520.367 271.521L516.394 265.603ZM502.137 273.536C497.044 276.04 491.627 278.545 485.885 281.052L488.736 287.584C494.567 285.039 500.083 282.488 505.281 279.932L502.137 273.536ZM485.813 281.084C480.091 283.734 474.346 286.804 468.577 290.291L472.264 296.39C477.825 293.029 483.34 290.084 488.808 287.551L485.813 281.084ZM468.739 290.199C464.962 292.22 461.344 294.41 457.887 296.77L461.905 302.657C465.146 300.445 468.545 298.387 472.102 296.483L468.739 290.199ZM457.856 296.791C454.267 299.298 451.525 302.518 449.691 306.422L456.143 309.452C457.431 306.709 459.342 304.447 461.936 302.635L457.856 296.791ZM449.691 306.422C447.673 310.72 447.566 316.016 448.758 321.91L455.744 320.497C454.703 315.349 455.04 311.801 456.143 309.452L449.691 306.422ZM451.147 317.815L448.256 318.757L450.464 325.534L453.356 324.592L451.147 317.815ZM451.781 319.53C446.313 314.47 442.461 308.702 440.149 302.21L433.434 304.601C436.157 312.247 440.683 318.972 446.94 324.761L451.781 319.53ZM440.174 302.282C438.145 296.171 438.458 289.925 441.268 283.373L434.718 280.564C431.276 288.587 430.788 296.633 433.409 304.528L440.174 302.282ZM441.268 283.373C443.18 278.915 445.655 275.366 448.649 272.636L443.845 267.37C440.001 270.876 436.973 275.305 434.718 280.564L441.268 283.373ZM448.548 272.724C451.984 269.818 455.73 267.214 459.791 264.912L456.276 258.711C451.843 261.225 447.731 264.081 443.946 267.282L448.548 272.724ZM459.781 264.917C464.343 262.351 468.841 259.654 473.274 256.827L469.442 250.818C465.119 253.574 460.734 256.203 456.287 258.705L459.781 264.917ZM473.184 256.883C478.145 253.924 482.582 250.011 486.504 245.192L480.976 240.693C477.529 244.928 473.712 248.269 469.532 250.762L473.184 256.883ZM486.46 245.246C490.748 240.184 494.124 233.89 496.656 226.461L489.909 224.162C487.601 230.934 484.617 236.394 481.021 240.639L486.46 245.246ZM496.674 226.406C500.614 214.192 501.185 203.376 497.782 194.262L491.105 196.754C493.748 203.836 493.545 212.89 489.891 224.218L496.674 226.406ZM497.804 194.323C494.547 185.083 487.485 178.77 477.242 175.279L474.943 182.026C483.505 184.944 488.677 189.868 491.082 196.693L497.804 194.323ZM477.242 175.279C466.45 171.602 456.314 172.833 447.218 179.096L451.26 184.966C458.395 180.054 466.161 179.033 474.943 182.026L477.242 175.279ZM447.255 179.071C438.266 185.096 431.383 196.041 426.238 211.139L432.985 213.438C437.91 198.983 444.113 189.757 451.224 184.991L447.255 179.071ZM430.761 208.915L427.883 207.934L425.584 214.681L428.462 215.661L430.761 208.915ZM430.296 211.381L431.005 177.247L423.879 177.099L423.17 211.233L430.296 211.381ZM423.872 376.198C418.996 374.536 415.407 371.447 412.976 366.779L406.654 370.072C409.919 376.341 414.936 380.682 421.573 382.944L423.872 376.198ZM413.013 366.853C410.778 362.308 410.486 357.708 412.146 352.835L405.4 350.536C403.136 357.177 403.539 363.737 406.617 369.998L413.013 366.853ZM412.146 352.835C413.883 347.737 416.976 344.195 421.491 341.976L418.346 335.58C412.054 338.673 407.717 343.736 405.4 350.536L412.146 352.835ZM421.416 342.012C426.192 339.8 430.92 339.545 435.796 341.207L438.095 334.461C431.458 332.199 424.834 332.574 418.421 335.544L421.416 342.012ZM435.796 341.207C440.669 342.867 444.133 345.908 446.368 350.454L452.764 347.309C449.686 341.048 444.737 336.724 438.095 334.461L435.796 341.207ZM446.368 350.454C448.587 354.968 448.874 359.661 447.137 364.759L453.883 367.058C456.2 360.259 455.858 353.601 452.764 347.309L446.368 350.454ZM447.137 364.759C445.476 369.632 442.435 373.096 437.89 375.331L441.035 381.727C447.296 378.649 451.62 373.7 453.883 367.058L447.137 364.759ZM437.89 375.331C433.345 377.565 428.745 377.858 423.872 376.198L421.573 382.944C428.214 385.207 434.774 384.805 441.035 381.727L437.89 375.331Z" fill="url(#paint0_linear)" fill-opacity="0.5"/>
</g>
<g filter="url(#filter1_f)">
<path d="M83.1483 307.115L79.8731 307.333L79.9688 308.775L81.0971 309.678L83.1483 307.115ZM90.2151 280.858L93.0385 282.532L93.052 282.509L93.0651 282.486L90.2151 280.858ZM199.825 277.12L196.613 277.796L196.62 277.831L196.628 277.866L199.825 277.12ZM200.914 291.879L197.639 291.65L197.638 291.661L197.638 291.673L200.914 291.879ZM198.662 307.183L195.46 306.461L195.451 306.5L195.443 306.539L198.662 307.183ZM195.012 323.419L191.826 322.63L191.818 322.665L191.81 322.701L195.012 323.419ZM192.14 340.82L195.379 341.352L195.393 341.267L195.402 341.182L192.14 340.82ZM190.898 352.084L187.62 351.902L187.619 351.92L187.619 351.937L190.898 352.084ZM192.996 361.794L195.911 360.286L195.911 360.286L192.996 361.794ZM202.319 369.717L205.414 370.809L206.387 368.052L203.76 366.768L202.319 369.717ZM201.387 372.358L201.942 375.593L203.841 375.267L204.482 373.45L201.387 372.358ZM180.645 371.039L179.57 374.141L179.604 374.152L179.637 374.163L180.645 371.039ZM165.652 358.145L168.514 356.539L165.652 358.145ZM161.533 345.406L158.255 345.562L158.258 345.624L158.263 345.685L161.533 345.406ZM162.154 332.2L158.904 331.736L158.903 331.746L162.154 332.2ZM163.784 317.984L160.523 317.603L160.518 317.651L160.514 317.7L163.784 317.984ZM162.772 302.836L159.565 303.532L159.572 303.564L159.579 303.595L162.772 302.836ZM155.236 285.979L157.967 284.158L157.952 284.136L157.936 284.114L155.236 285.979ZM134.105 268.425L133.086 271.545L133.115 271.555L133.144 271.564L134.105 268.425ZM98.9167 293.908L102.192 294.117L102.194 294.097L102.195 294.076L98.9167 293.908ZM110.028 325.213L111.849 327.944L114.58 326.123L112.759 323.392L110.028 325.213ZM107.698 326.767L105.646 329.329L107.521 330.83L109.519 329.498L107.698 326.767ZM213.044 427.201L212.4 430.42L212.438 430.427L212.475 430.434L213.044 427.201ZM197.039 403.198L193.836 402.48L193.828 402.518L193.821 402.555L197.039 403.198ZM221.042 387.194L221.685 383.975L221.042 387.194ZM237.046 411.196L233.828 410.553L237.046 411.196ZM86.4235 306.898C85.9052 299.087 88.0256 290.987 93.0385 282.532L87.3917 279.184C81.8414 288.545 79.2506 297.95 79.8731 307.333L86.4235 306.898ZM93.0651 282.486C97.9381 273.957 105.489 266.202 115.882 259.272L112.24 253.81C101.194 261.176 92.8482 269.632 87.3651 279.23L93.0651 282.486ZM115.882 259.272C132.318 248.313 146.857 243.683 159.622 244.738L160.163 238.196C145.377 236.974 129.362 242.394 112.24 253.81L115.882 259.272ZM159.622 244.738C172.283 245.784 182.56 252.096 190.567 264.104L196.029 260.462C187.047 246.991 175.054 239.426 160.163 238.196L159.622 244.738ZM190.567 264.104C193.693 268.792 195.677 273.354 196.613 277.796L203.037 276.443C201.9 271.046 199.533 265.717 196.029 260.462L190.567 264.104ZM196.628 277.866C197.636 282.181 197.98 286.771 197.639 291.65L204.188 292.108C204.571 286.63 204.19 281.379 203.021 276.373L196.628 277.866ZM197.638 291.673C197.339 296.403 196.616 301.332 195.46 306.461L201.864 307.905C203.089 302.469 203.867 297.195 204.189 292.086L197.638 291.673ZM195.443 306.539C194.419 311.665 193.213 317.028 191.826 322.63L198.199 324.208C199.607 318.519 200.835 313.059 201.881 307.826L195.443 306.539ZM191.81 322.701C190.539 328.368 189.562 334.287 188.877 340.458L195.402 341.182C196.062 335.234 197.001 329.553 198.215 324.137L191.81 322.701ZM188.901 340.288C188.261 344.181 187.834 348.053 187.62 351.902L194.175 352.266C194.375 348.657 194.776 345.02 195.379 341.352L188.901 340.288ZM187.619 351.937C187.439 355.965 188.255 359.774 190.081 363.302L195.911 360.286C194.629 357.807 194.047 355.143 194.177 352.23L187.619 351.937ZM190.081 363.302C192.09 367.187 195.901 370.234 200.877 372.666L203.76 366.768C199.414 364.644 197.01 362.409 195.911 360.286L190.081 363.302ZM199.223 368.625L198.291 371.266L204.482 373.45L205.414 370.809L199.223 368.625ZM200.832 369.123C194.069 370.283 187.694 369.865 181.654 367.916L179.637 374.163C186.751 376.459 194.204 376.92 201.942 375.593L200.832 369.123ZM181.721 367.938C176.116 365.995 171.727 362.265 168.514 356.539L162.789 359.752C166.724 366.765 172.33 371.631 179.57 374.141L181.721 367.938ZM168.514 356.539C166.328 352.643 165.121 348.845 164.804 345.126L158.263 345.685C158.671 350.46 160.21 355.155 162.789 359.752L168.514 356.539ZM164.812 345.249C164.614 341.109 164.811 336.912 165.404 332.653L158.903 331.746C158.254 336.396 158.037 341.002 158.255 345.562L164.812 345.249ZM165.403 332.664C166.084 327.891 166.635 323.092 167.054 318.268L160.514 317.7C160.105 322.404 159.568 327.083 158.904 331.736L165.403 332.664ZM167.044 318.365C167.662 313.081 167.289 307.644 165.966 302.077L159.579 303.595C160.742 308.488 161.044 313.151 160.523 317.603L167.044 318.365ZM165.98 302.139C164.684 296.168 161.977 290.172 157.967 284.158L152.505 287.8C156.16 293.283 158.478 298.525 159.565 303.532L165.98 302.139ZM157.936 284.114C151.218 274.388 143.633 267.908 135.065 265.286L133.144 271.564C139.802 273.601 146.304 278.825 152.535 287.845L157.936 284.114ZM135.123 265.305C126.543 262.505 117.971 264.128 109.678 269.658L113.32 275.12C120.252 270.497 126.75 269.478 133.086 271.545L135.123 265.305ZM109.678 269.658C100.942 275.483 96.1601 283.582 95.6386 293.74L102.195 294.076C102.604 286.108 106.211 279.86 113.32 275.12L109.678 269.658ZM95.641 293.699C95.0057 303.646 99.147 314.811 107.297 327.034L112.759 323.392C104.956 311.69 101.69 301.986 102.192 294.117L95.641 293.699ZM108.207 322.482L105.877 324.036L109.519 329.498L111.849 327.944L108.207 322.482ZM109.749 324.204L85.1996 304.553L81.0971 309.678L105.646 329.329L109.749 324.204ZM226.604 421.284C222.656 423.916 218.387 424.808 213.612 423.968L212.475 430.434C218.887 431.561 224.872 430.329 230.246 426.745L226.604 421.284ZM213.687 423.982C209.113 423.068 205.587 420.703 202.957 416.758L197.495 420.4C201.08 425.777 206.099 429.16 212.4 430.42L213.687 423.982ZM202.957 416.758C200.205 412.631 199.35 408.385 200.258 403.842L193.821 402.555C192.555 408.887 193.824 414.895 197.495 420.4L202.957 416.758ZM200.242 403.917C201.303 399.186 203.767 395.588 207.715 392.956L204.073 387.494C198.699 391.077 195.261 396.128 193.836 402.48L200.242 403.917ZM207.715 392.956C211.659 390.325 215.824 389.498 220.398 390.412L221.685 383.975C215.384 382.715 209.45 383.909 204.073 387.494L207.715 392.956ZM220.398 390.412C224.942 391.321 228.533 393.742 231.284 397.869L236.746 394.227C233.076 388.722 228.017 385.241 221.685 383.975L220.398 390.412ZM231.284 397.869C233.915 401.814 234.742 405.978 233.828 410.553L240.265 411.84C241.525 405.538 240.332 399.604 236.746 394.227L231.284 397.869ZM233.828 410.553C232.913 415.127 230.548 418.653 226.604 421.284L230.246 426.745C235.622 423.16 239.005 418.141 240.265 411.84L233.828 410.553Z" fill="url(#paint1_linear)" fill-opacity="0.5"/>
</g>
<path d="M189.952 128.255C196.477 113.921 207.847 101.869 224.062 92.101C240.245 81.9927 260.06 75.8253 283.505 73.5989C320.203 70.1139 349.148 75.251 370.341 89.01C391.533 102.769 403.452 123.58 406.098 151.443C407.131 162.317 406.352 172.162 403.76 180.98C401.477 189.425 397.801 197.66 392.735 205.684C387.976 213.336 382.351 220.899 375.861 228.372C369.71 235.813 363.066 243.473 355.928 251.351C349.131 259.196 342.567 267.706 336.238 276.878C331.965 282.427 328.048 288.113 324.487 293.937C321.233 299.389 319.557 305.205 319.458 311.386C319.359 317.567 322.076 324.509 327.607 332.212L323.82 335.658C311.071 331.382 300.321 324.689 291.57 315.577C283.159 306.433 278.834 295.186 278.595 281.838C278.435 272.939 279.902 264.913 282.994 257.763C286.426 250.58 290.57 243.672 295.426 237.039C300.59 230.034 305.567 222.876 310.358 215.564C315.49 208.219 319.318 199.799 321.845 190.301C324.679 180.432 325.5 169.212 324.306 156.639C321.998 135.944 315.724 120.425 305.485 110.083C295.585 99.709 282.31 95.3125 265.66 96.8936C248.331 98.5392 235.368 106.456 226.773 120.644C218.145 134.492 215.073 154.498 217.558 180.662L212.461 181.146L189.952 128.255ZM322.626 442.229C312.432 443.197 303.259 440.468 295.105 434.042C287.292 427.584 282.901 419.258 281.933 409.064C280.933 398.531 283.662 389.357 290.12 381.544C296.918 373.698 305.414 369.291 315.608 368.323C325.801 367.355 334.805 370.1 342.618 376.558C350.432 383.016 354.838 391.512 355.839 402.046C356.807 412.24 354.062 421.243 347.604 429.057C341.146 436.87 332.82 441.261 322.626 442.229Z" fill="#0F1118"/>
<path d="M189.952 128.255L184.491 125.769L183.397 128.173L184.432 130.604L189.952 128.255ZM224.062 92.101L227.158 97.2404L227.2 97.2155L227.241 97.1898L224.062 92.101ZM403.76 180.98L398.004 179.288L397.985 179.351L397.968 179.414L403.76 180.98ZM392.735 205.684L387.662 202.481L387.651 202.498L387.64 202.515L392.735 205.684ZM375.861 228.372L371.331 224.438L371.283 224.493L371.236 224.55L375.861 228.372ZM355.928 251.351L351.482 247.322L351.437 247.372L351.394 247.422L355.928 251.351ZM336.238 276.878L340.992 280.539L341.088 280.415L341.177 280.286L336.238 276.878ZM324.487 293.937L319.368 290.807L319.351 290.834L319.334 290.862L324.487 293.937ZM319.458 311.386L325.457 311.482L319.458 311.386ZM327.607 332.212L331.645 336.65L335.598 333.054L332.481 328.713L327.607 332.212ZM323.82 335.658L321.912 341.346L325.252 342.466L327.858 340.096L323.82 335.658ZM291.57 315.577L287.154 319.639L287.198 319.687L287.243 319.733L291.57 315.577ZM278.595 281.838L284.594 281.73L278.595 281.838ZM282.994 257.763L277.58 255.176L277.532 255.278L277.487 255.381L282.994 257.763ZM295.426 237.039L290.597 233.479L290.591 233.487L290.585 233.495L295.426 237.039ZM310.358 215.564L305.44 212.128L305.389 212.201L305.34 212.275L310.358 215.564ZM321.845 190.301L316.078 188.645L316.062 188.702L316.047 188.759L321.845 190.301ZM324.306 156.639L330.279 156.072L330.274 156.023L330.269 155.974L324.306 156.639ZM305.485 110.083L301.144 114.225L301.182 114.265L301.221 114.305L305.485 110.083ZM226.773 120.644L231.865 123.817L231.885 123.785L231.904 123.753L226.773 120.644ZM217.558 180.662L218.125 186.635L224.098 186.068L223.531 180.095L217.558 180.662ZM212.461 181.146L206.94 183.495L208.659 187.534L213.028 187.119L212.461 181.146ZM295.105 434.042L291.283 438.667L291.337 438.711L291.391 438.754L295.105 434.042ZM290.12 381.544L285.585 377.615L285.54 377.667L285.495 377.721L290.12 381.544ZM342.618 376.558L346.441 371.934L342.618 376.558ZM347.604 429.057L342.979 425.234L347.604 429.057ZM195.413 130.74C201.342 117.716 211.768 106.512 227.158 97.2404L220.966 86.9615C203.926 97.2269 191.612 110.125 184.491 125.769L195.413 130.74ZM227.241 97.1898C242.47 87.6772 261.341 81.7307 284.073 79.572L282.938 67.6257C258.778 69.92 238.02 76.3083 220.884 87.0121L227.241 97.1898ZM284.073 79.572C320.021 76.1582 347.435 81.292 367.074 94.0424L373.608 83.9776C350.862 69.21 320.385 64.0696 282.938 67.6257L284.073 79.572ZM367.074 94.0424C386.551 106.688 397.631 125.747 400.125 152.011L412.072 150.876C409.274 121.413 396.516 98.8504 373.608 83.9776L367.074 94.0424ZM400.125 152.011C401.099 162.264 400.343 171.327 398.004 179.288L409.517 182.671C412.36 172.998 413.163 162.369 412.072 150.876L400.125 152.011ZM397.968 179.414C395.854 187.234 392.435 194.921 387.662 202.481L397.808 208.887C403.168 200.399 407.1 191.617 409.552 182.546L397.968 179.414ZM387.64 202.515C383.064 209.873 377.633 217.181 371.331 224.438L380.391 232.306C387.069 224.616 392.888 216.799 397.83 208.853L387.64 202.515ZM371.236 224.55C365.149 231.914 358.565 239.505 351.482 247.322L360.375 255.379C367.567 247.441 374.272 239.713 380.485 232.195L371.236 224.55ZM351.394 247.422C344.442 255.445 337.745 264.13 331.3 273.47L341.177 280.286C347.39 271.281 353.819 262.948 360.463 255.28L351.394 247.422ZM331.484 273.217C327.084 278.932 323.044 284.795 319.368 290.807L329.605 297.067C333.052 291.431 336.847 285.922 340.992 280.539L331.484 273.217ZM319.334 290.862C315.558 297.19 313.575 304.03 313.459 311.29L325.457 311.482C325.539 306.38 326.908 301.587 329.639 297.012L319.334 290.862ZM313.459 311.29C313.331 319.283 316.828 327.488 322.733 335.712L332.481 328.713C327.323 321.53 325.387 315.85 325.457 311.482L313.459 311.29ZM323.569 327.774L319.782 331.219L327.858 340.096L331.645 336.65L323.569 327.774ZM325.728 329.969C313.836 325.981 303.934 319.789 295.897 311.421L287.243 319.733C296.708 329.589 308.306 336.784 321.912 341.346L325.728 329.969ZM295.986 311.515C288.646 303.536 284.809 293.73 284.594 281.73L272.596 281.945C272.859 296.642 277.672 309.33 287.154 319.639L295.986 311.515ZM284.594 281.73C284.447 273.565 285.793 266.405 288.501 260.144L277.487 255.381C274.01 263.422 272.423 272.312 272.596 281.945L284.594 281.73ZM288.408 260.349C291.674 253.513 295.625 246.925 300.267 240.583L290.585 233.495C285.516 240.418 281.178 247.646 277.58 255.176L288.408 260.349ZM300.256 240.599C305.485 233.505 310.525 226.256 315.377 218.852L305.34 212.275C300.609 219.496 295.694 226.564 290.597 233.479L300.256 240.599ZM315.277 219C320.847 211.028 324.954 201.953 327.643 191.844L316.047 188.759C313.683 197.644 310.132 205.411 305.44 212.128L315.277 219ZM327.612 191.958C330.695 181.222 331.528 169.225 330.279 156.072L318.333 157.206C319.471 169.198 318.664 179.643 316.078 188.645L327.612 191.958ZM330.269 155.974C327.874 134.5 321.272 117.502 309.748 105.862L301.221 114.305C310.175 123.349 316.121 137.388 318.343 157.304L330.269 155.974ZM309.825 105.941C298.437 94.0066 283.231 89.198 265.093 90.9205L266.228 102.867C281.39 101.427 292.733 105.411 301.144 114.225L309.825 105.941ZM265.093 90.9205C245.984 92.7351 231.275 101.633 221.641 117.535L231.904 123.753C239.461 111.279 250.678 104.343 266.228 102.867L265.093 90.9205ZM221.68 117.471C212.046 132.934 209.046 154.496 211.585 181.229L223.531 180.095C221.1 154.5 224.244 136.049 231.865 123.817L221.68 117.471ZM216.991 174.689L211.894 175.173L213.028 187.119L218.125 186.635L216.991 174.689ZM217.982 178.797L195.473 125.905L184.432 130.604L206.94 183.495L217.982 178.797ZM322.059 436.255C313.424 437.075 305.779 434.815 298.819 429.33L291.391 438.754C300.738 446.121 311.44 449.318 323.193 448.202L322.059 436.255ZM298.928 429.417C292.355 423.985 288.726 417.125 287.907 408.497L275.96 409.631C277.077 421.391 282.229 431.183 291.283 438.667L298.928 429.417ZM287.907 408.497C287.049 399.47 289.349 391.894 294.745 385.366L285.495 377.721C277.975 386.82 274.817 397.591 275.96 409.631L287.907 408.497ZM294.655 385.473C300.458 378.775 307.541 375.116 316.175 374.296L315.04 362.35C303.287 363.466 293.378 368.621 285.585 377.615L294.655 385.473ZM316.175 374.296C324.803 373.477 332.223 375.75 338.796 381.183L346.441 371.934C337.387 364.45 326.8 361.233 315.04 362.35L316.175 374.296ZM338.796 381.183C345.324 386.579 349.008 393.586 349.866 402.613L361.812 401.479C360.668 389.438 355.539 379.454 346.441 371.934L338.796 381.183ZM349.866 402.613C350.685 411.241 348.412 418.661 342.979 425.234L352.228 432.879C359.712 423.825 362.929 413.239 361.812 401.479L349.866 402.613ZM342.979 425.234C337.546 431.807 330.686 435.436 322.059 436.255L323.193 448.202C334.953 447.085 344.745 441.933 352.228 432.879L342.979 425.234Z" fill="url(#paint2_linear)" fill-opacity="0.8"/>
</g>
<defs>
<filter id="filter0_f" x="399.959" y="157.769" width="149.649" height="230.616" filterUnits="userSpaceOnUse" color-interpolation-filters="sRGB">
<feFlood flood-opacity="0" result="BackgroundImageFix"/>
<feBlend mode="normal" in="SourceGraphic" in2="BackgroundImageFix" result="shape"/>
<feGaussianBlur stdDeviation="2" result="effect1_foregroundBlur"/>
</filter>
<filter id="filter1_f" x="75.7822" y="234.027" width="168.969" height="200.811" filterUnits="userSpaceOnUse" color-interpolation-filters="sRGB">
<feFlood flood-opacity="0" result="BackgroundImageFix"/>
<feBlend mode="normal" in="SourceGraphic" in2="BackgroundImageFix" result="shape"/>
<feGaussianBlur stdDeviation="2" result="effect1_foregroundBlur"/>
</filter>
<linearGradient id="paint0_linear" x1="328.847" y1="457.368" x2="462.773" y2="503.007" gradientUnits="userSpaceOnUse">
<stop stop-color="#EAC48B"/>
<stop offset="0.51875" stop-color="#F8E3C6"/>
<stop offset="0.968697" stop-color="#EAC48B"/>
</linearGradient>
<linearGradient id="paint1_linear" x1="232.413" y1="535.858" x2="340.839" y2="463.56" gradientUnits="userSpaceOnUse">
<stop stop-color="#EAC48B"/>
<stop offset="0.51875" stop-color="#F8E3C6"/>
<stop offset="0.968697" stop-color="#EAC48B"/>
</linearGradient>
<linearGradient id="paint2_linear" x1="232.297" y1="626.592" x2="469.445" y2="604.072" gradientUnits="userSpaceOnUse">
<stop stop-color="#EAC48B"/>
<stop offset="0.51875" stop-color="#F8E3C6"/>
<stop offset="0.968697" stop-color="#EAC48B"/>
</linearGradient>
<clipPath id="clip0">
<rect width="620" height="490" fill="white"/>
</clipPath>
</defs>
</svg>
