<svg width="182" height="176" viewBox="0 0 182 176" fill="none" xmlns="http://www.w3.org/2000/svg">
<g filter="url(#filter0_d)">
<path d="M17.1344 0.349082L46.3272 2.09574L137.276 94.6065L148.834 82.227L155.959 91.2171L138.324 109.276L108.909 139.334L99.7995 133.38L111.358 121.001L13.7525 26.7397L16.1198 8.26627L37.8834 29.468L47.3418 29.5832L17.1344 0.349082Z" fill="url(#paint0_linear)"/>
<path d="M126.561 121.305L138.324 109.276L168.486 140.57L160.314 149.096L126.561 121.305Z" fill="url(#paint1_linear)"/>
<path d="M17.1344 0.349082L47.3418 29.5832L37.8834 29.468L16.1198 8.26627L17.1344 0.349082Z" fill="url(#paint2_linear)"/>
</g>
<defs>
<filter id="filter0_d" x="0.775152" y="0.348633" width="180.689" height="174.702" filterUnits="userSpaceOnUse" color-interpolation-filters="sRGB">
<feFlood flood-opacity="0" result="BackgroundImageFix"/>
<feColorMatrix in="SourceAlpha" type="matrix" values="0 0 0 0 0 0 0 0 0 0 0 0 0 0 0 0 0 0 127 0" result="hardAlpha"/>
<feOffset dy="12.9778"/>
<feGaussianBlur stdDeviation="6.48889"/>
<feColorMatrix type="matrix" values="0 0 0 0 0 0 0 0 0 0 0 0 0 0 0 0 0 0 0.25 0"/>
<feBlend mode="normal" in2="BackgroundImageFix" result="effect1_dropShadow"/>
<feBlend mode="normal" in="SourceGraphic" in2="effect1_dropShadow" result="shape"/>
</filter>
<linearGradient id="paint0_linear" x1="87.3661" y1="46.0931" x2="143.473" y2="142.239" gradientUnits="userSpaceOnUse">
<stop stop-color="#C09645"/>
<stop offset="0.5" stop-color="#FFC977"/>
<stop offset="1" stop-color="#C09645"/>
</linearGradient>
<linearGradient id="paint1_linear" x1="87.3661" y1="46.0931" x2="143.473" y2="142.239" gradientUnits="userSpaceOnUse">
<stop stop-color="#C09645"/>
<stop offset="0.5" stop-color="#FFC977"/>
<stop offset="1" stop-color="#C09645"/>
</linearGradient>
<linearGradient id="paint2_linear" x1="87.3661" y1="46.0931" x2="143.473" y2="142.239" gradientUnits="userSpaceOnUse">
<stop stop-color="#C09645"/>
<stop offset="0.5" stop-color="#FFC977"/>
<stop offset="1" stop-color="#C09645"/>
</linearGradient>
</defs>
</svg>
